<svg width="211" height="217" viewBox="0 0 211 217" fill="none" xmlns="http://www.w3.org/2000/svg">
<g clip-path="url(#clip0_1_1826)">
<rect width="211" height="217" rx="105.5" fill="white"/>
<path d="M105.017 146.492C130.061 146.492 150.362 125.841 150.362 100.365C150.362 74.8903 130.061 54.2386 105.017 54.2386C79.974 54.2386 59.6724 74.8903 59.6724 100.365C59.6724 125.841 79.974 146.492 105.017 146.492Z" fill="url(#paint0_linear_1_1826)"/>
<path d="M173.817 228.164V317.563C173.817 325.847 167.101 332.563 158.817 332.563H51.4894C43.2051 332.563 36.4894 325.847 36.4894 317.563L36.4893 249.213C36.489 229.543 32.832 197.673 52.3931 177.434C65.2417 164.136 83.1278 155.874 102.899 155.874C122.671 155.874 140.208 163.964 153.044 177.048C165.88 190.132 173.817 208.191 173.817 228.16V228.164Z" fill="url(#paint1_linear_1_1826)"/>
<path d="M99.3271 88.2083H91.2421C88.4886 88.2083 87.1107 88.2083 86.059 88.7442C85.1339 89.2156 84.3823 89.9672 83.9109 90.8923C83.375 91.9441 83.375 93.3219 83.375 96.0755V109.842C83.375 112.596 83.375 113.971 83.9109 115.022C84.3823 115.947 85.1339 116.702 86.059 117.173C87.1097 117.708 88.4859 117.708 91.2341 117.708H119.766C122.514 117.708 123.888 117.708 124.939 117.173C125.864 116.702 126.618 115.947 127.09 115.022C127.625 113.972 127.625 112.597 127.625 109.849V96.0674C127.625 93.3192 127.625 91.943 127.09 90.8923C126.618 89.9672 125.864 89.2156 124.939 88.7442C123.887 88.2083 122.512 88.2083 119.759 88.2083H111.672M99.3271 88.2083H99.479M99.3271 88.2083C99.3579 88.2083 99.3903 88.2083 99.4244 88.2083L99.479 88.2083M99.3271 88.2083C99.0662 88.2082 98.92 88.2069 98.8044 88.1939C97.3599 88.0322 96.3692 86.6573 96.6726 85.2358C96.7008 85.1035 96.7566 84.9361 96.8671 84.6047L96.8718 84.5907C96.998 84.2121 97.0611 84.0229 97.1308 83.8558C97.8444 82.1458 99.4604 80.9829 101.308 80.8466C101.489 80.8333 101.687 80.8333 102.086 80.8333H108.914C109.313 80.8333 109.513 80.8333 109.693 80.8466C111.541 80.9829 113.155 82.1458 113.869 83.8558C113.939 84.0228 114.002 84.2119 114.128 84.5904C114.242 84.9313 114.299 85.1019 114.327 85.236C114.631 86.6575 113.642 88.0322 112.197 88.1939C112.081 88.2069 111.934 88.2082 111.672 88.2083M99.479 88.2083H111.52M111.52 88.2083H111.672M111.52 88.2083L111.575 88.2083C111.609 88.2083 111.642 88.2083 111.672 88.2083M105.5 110.333C101.427 110.333 98.125 107.031 98.125 102.958C98.125 98.8852 101.427 95.5833 105.5 95.5833C109.573 95.5833 112.875 98.8852 112.875 102.958C112.875 107.031 109.573 110.333 105.5 110.333Z" stroke="white" stroke-opacity="0.12" stroke-width="2" stroke-linecap="round" stroke-linejoin="round"/>
</g>
<defs>
<linearGradient id="paint0_linear_1_1826" x1="105.017" y1="54.2386" x2="105.017" y2="146.492" gradientUnits="userSpaceOnUse">
<stop stop-color="#3D4434"/>
<stop offset="1" stop-color="#D8E6C6"/>
</linearGradient>
<linearGradient id="paint1_linear_1_1826" x1="105.018" y1="155.874" x2="105.018" y2="332.563" gradientUnits="userSpaceOnUse">
<stop stop-color="#3D4434"/>
<stop offset="0.442308" stop-color="#D8E6C6"/>
</linearGradient>
<clipPath id="clip0_1_1826">
<rect width="211" height="217" rx="105.5" fill="white"/>
</clipPath>
</defs>
</svg>
