<svg width="129" height="129" viewBox="0 0 129 129" fill="none" xmlns="http://www.w3.org/2000/svg">
    <path
        d="M42.9514 50.5579C51.2454 50.5579 57.969 43.8343 57.969 35.5403C57.969 27.2463 51.2454 20.5227 42.9514 20.5227C34.6574 20.5227 27.9338 27.2463 27.9338 35.5403C27.9338 43.8343 34.6574 50.5579 42.9514 50.5579Z"
        fill="#343444" />
    <path
        d="M65.3794 77.2199V111.409L26.8774 83.6048C19.3321 78.1555 18.3178 67.2344 24.8474 60.6065C29.1363 56.2515 35.1068 53.5458 41.7067 53.5458C48.3066 53.5458 54.1605 56.1953 58.4452 60.48C62.7299 64.7647 65.3794 70.679 65.3794 77.2185V77.2199Z"
        fill="#343444" />
    <path
        d="M87.8075 50.5579C96.1015 50.5579 102.825 43.8343 102.825 35.5403C102.825 27.2463 96.1015 20.5227 87.8075 20.5227C79.5136 20.5227 72.79 27.2463 72.79 35.5403C72.79 43.8343 79.5136 50.5579 87.8075 50.5579Z"
        fill="#90B000" />
    <path
        d="M65.3794 77.2199V111.409L103.881 83.6048C111.427 78.1555 112.441 67.2344 105.911 60.6065C101.622 56.2515 95.6519 53.5458 89.0521 53.5458C82.5126 53.5458 76.5983 56.1953 72.3136 60.48C68.0289 64.7647 65.3794 70.679 65.3794 77.2185V77.2199Z"
        fill="#90B000" />
</svg>
